<?xml version="1.0" encoding="UTF-8"?>
<svg id="Layer_1" data-name="Layer 1" xmlns="http://www.w3.org/2000/svg" viewBox="0 0 120 24">
  <defs>
    <style>
      .cls-1 {
        fill: #231f20;
      }

      .cls-2 {
        fill: #6963ac;
      }

      .cls-3 {
        fill: #eb2127;
      }

      .cls-4 {
        fill: #735ba7;
      }

      .cls-5 {
        fill: #c8b579;
      }

      .cls-6 {
        fill: #3a4767;
      }

      .cls-7 {
        fill: #3867a6;
      }
    </style>
  </defs>
  <g>
    <path class="cls-1" d="M16.71,14.75v-5.11h2.14c.23,0,.45.05.64.15s.37.23.51.39c.14.16.25.34.33.55.08.2.12.41.12.62s-.04.43-.11.63-.18.38-.32.54c-.14.16-.3.29-.5.38-.19.1-.41.14-.64.14h-1.19v1.71h-.98ZM17.69,12.16h1.14c.18,0,.33-.07.45-.22s.18-.35.18-.6c0-.13-.02-.25-.06-.35s-.09-.19-.15-.26-.13-.13-.22-.16c-.08-.04-.17-.05-.25-.05h-1.09v1.65Z"/>
    <path class="cls-1" d="M22.18,14.82c-.38,0-.67-.12-.87-.37-.2-.25-.3-.62-.3-1.11v-2.36h.95v2.15c0,.58.21.87.62.87.18,0,.36-.06.54-.17.17-.11.31-.28.42-.51v-2.34h.95v2.66c0,.1.02.17.05.22.04.04.09.07.17.07v.82c-.09.02-.17.03-.24.04-.06,0-.12,0-.17,0-.17,0-.31-.04-.42-.12-.11-.08-.17-.19-.19-.33l-.02-.3c-.17.26-.38.45-.64.58-.26.13-.55.19-.86.19Z"/>
    <path class="cls-1" d="M26.84,14.82c-.31,0-.62-.05-.92-.15s-.55-.24-.77-.43l.35-.6c.23.16.45.29.66.37.22.08.43.13.64.13.19,0,.34-.04.45-.11.11-.07.16-.18.16-.31s-.06-.23-.19-.3c-.13-.06-.34-.13-.62-.22-.24-.07-.45-.13-.62-.19-.17-.06-.31-.13-.41-.21s-.18-.17-.23-.27c-.05-.1-.07-.23-.07-.37,0-.19.04-.36.11-.52.07-.15.18-.28.31-.39s.29-.19.47-.25c.18-.06.37-.09.58-.09.28,0,.54.04.78.12.24.08.47.21.67.4l-.38.58c-.19-.14-.37-.25-.55-.32s-.35-.1-.53-.1c-.16,0-.3.03-.4.1s-.16.18-.16.32c0,.07.01.12.04.17.03.04.07.08.12.12.06.03.13.07.22.1.09.03.21.06.34.1.26.07.47.13.66.2.18.07.33.14.45.23.12.09.2.19.26.3.05.11.08.25.08.41,0,.37-.13.66-.4.87-.27.21-.64.32-1.1.32Z"/>
    <path class="cls-1" d="M29.98,14.82c-.18,0-.35-.03-.5-.09-.16-.06-.29-.14-.4-.25-.11-.11-.2-.23-.27-.38-.06-.14-.1-.3-.1-.47s.04-.34.12-.49.19-.28.33-.39.31-.19.5-.25c.19-.06.41-.09.64-.09.17,0,.33.01.49.04.16.03.3.07.42.12v-.22c0-.25-.07-.44-.21-.58-.14-.13-.35-.2-.62-.2-.2,0-.39.04-.58.11-.19.07-.38.18-.58.32l-.29-.61c.48-.32.99-.48,1.55-.48s.95.13,1.25.4c.3.27.44.65.44,1.15v1.17c0,.1.02.17.05.22.04.04.09.07.17.07v.82c-.16.03-.3.05-.42.05-.18,0-.32-.04-.42-.12-.1-.08-.16-.19-.18-.32l-.02-.21c-.17.22-.37.39-.6.5-.24.12-.49.17-.76.17ZM30.25,14.11c.16,0,.31-.03.46-.09.14-.06.26-.13.34-.23.1-.08.16-.17.16-.27v-.43c-.11-.04-.24-.08-.37-.1-.13-.03-.26-.04-.38-.04-.25,0-.45.06-.6.17-.16.11-.23.26-.23.43,0,.16.06.3.18.41.12.11.27.16.45.16Z"/>
    <path class="cls-1" d="M35.24,14.55c-.13.06-.28.12-.47.17-.18.06-.38.09-.58.09-.13,0-.26-.02-.37-.05-.12-.03-.22-.09-.31-.16-.09-.07-.16-.17-.21-.29-.05-.12-.08-.26-.08-.43v-2.17h-.49v-.74h.49v-1.22h.95v1.22h.78v.74h-.78v1.84c0,.13.03.23.1.28.07.06.15.08.25.08s.2-.02.29-.05c.09-.03.17-.06.23-.09l.19.76Z"/>
    <path class="cls-1" d="M37.54,14.75v-5.1h.98v2.42l2.12-2.43h1.08l-1.93,2.27,2.05,2.84h-1.1l-1.57-2.21-.65.68v1.52h-.98Z"/>
    <path class="cls-1" d="M43.74,14.82c-.3,0-.57-.05-.81-.15-.24-.1-.45-.24-.62-.42-.17-.18-.3-.38-.39-.62-.09-.23-.14-.48-.14-.74s.05-.52.13-.76c.09-.24.22-.45.39-.63s.38-.32.62-.43.52-.16.82-.16.57.05.81.16c.24.11.44.25.61.42s.3.38.38.62.13.48.13.73c0,.06,0,.12,0,.18,0,.06,0,.11-.02.14h-2.88c.01.15.05.28.11.4.06.12.13.21.22.3s.19.14.31.19c.11.04.23.06.36.06.19,0,.37-.05.54-.14.17-.09.28-.22.34-.37l.82.23c-.14.29-.36.52-.66.71-.3.18-.66.28-1.08.28ZM44.71,12.55c-.02-.28-.13-.51-.31-.68s-.4-.26-.66-.26c-.13,0-.25.02-.36.07-.11.05-.21.11-.29.19-.09.08-.16.18-.21.3-.05.11-.09.24-.1.38h1.93Z"/>
    <path class="cls-1" d="M46.26,9.5h.95v4.04c0,.14.03.25.1.32.07.08.16.11.28.11.06,0,.12,0,.19-.03.07-.02.13-.04.2-.07l.13.73c-.13.06-.28.11-.45.14-.17.03-.32.05-.46.05-.3,0-.53-.08-.69-.24-.16-.16-.24-.39-.24-.69v-4.38Z"/>
    <path class="cls-1" d="M50.24,14.82c-.3,0-.58-.05-.82-.16-.24-.11-.45-.25-.61-.43-.17-.18-.3-.39-.39-.62-.09-.24-.13-.48-.13-.74s.05-.51.13-.75c.09-.23.22-.44.39-.62.17-.18.37-.32.61-.43.24-.11.51-.16.82-.16s.57.05.81.16c.24.11.44.25.61.43.17.18.3.39.39.62.09.24.13.48.13.75s-.05.51-.13.74c-.09.23-.22.44-.38.62-.17.18-.37.32-.61.43-.24.11-.51.16-.82.16ZM49.27,12.87c0,.17.02.32.07.46.05.14.12.26.21.36s.19.18.31.23c.12.06.25.08.38.08s.27-.03.38-.08c.12-.06.22-.13.31-.23.09-.1.16-.22.21-.36.05-.14.07-.29.07-.46s-.02-.31-.07-.45c-.05-.14-.12-.26-.21-.36-.09-.1-.19-.18-.31-.23-.12-.06-.25-.08-.38-.08s-.27.03-.38.09c-.12.06-.22.14-.31.24s-.16.22-.21.36-.07.29-.07.45Z"/>
    <path class="cls-1" d="M52.82,9.5h.95v4.04c0,.14.03.25.1.32.07.08.16.11.28.11.06,0,.12,0,.19-.03.07-.02.13-.04.2-.07l.13.73c-.13.06-.28.11-.45.14-.17.03-.32.05-.46.05-.3,0-.53-.08-.69-.24-.16-.16-.24-.39-.24-.69v-4.38Z"/>
    <path class="cls-1" d="M56.09,14.82c-.18,0-.35-.03-.5-.09-.16-.06-.29-.14-.4-.25-.11-.11-.2-.23-.27-.38-.06-.14-.1-.3-.1-.47s.04-.34.12-.49.19-.28.33-.39.31-.19.5-.25c.19-.06.41-.09.64-.09.17,0,.33.01.49.04.16.03.3.07.42.12v-.22c0-.25-.07-.44-.21-.58-.14-.13-.35-.2-.62-.2-.2,0-.39.04-.58.11-.19.07-.38.18-.58.32l-.29-.61c.48-.32.99-.48,1.55-.48s.95.13,1.25.4c.3.27.44.65.44,1.15v1.17c0,.1.02.17.05.22.04.04.09.07.17.07v.82c-.16.03-.3.05-.42.05-.18,0-.32-.04-.42-.12-.1-.08-.16-.19-.18-.32l-.02-.21c-.17.22-.37.39-.6.5-.24.12-.49.17-.76.17ZM56.36,14.11c.16,0,.31-.03.46-.09.14-.06.26-.13.34-.23.1-.08.16-.17.16-.27v-.43c-.11-.04-.24-.08-.37-.1-.13-.03-.26-.04-.38-.04-.25,0-.45.06-.6.17-.16.11-.23.26-.23.43,0,.16.06.3.18.41.12.11.27.16.45.16Z"/>
    <path class="cls-1" d="M60.95,14.75v-5.1h.98v2.42l2.12-2.43h1.08l-1.93,2.27,2.05,2.84h-1.1l-1.57-2.21-.65.68v1.52h-.98Z"/>
    <path class="cls-1" d="M66.63,14.82c-.18,0-.35-.03-.5-.09-.16-.06-.29-.14-.4-.25-.11-.11-.2-.23-.27-.38-.06-.14-.1-.3-.1-.47s.04-.34.12-.49.19-.28.33-.39.31-.19.5-.25c.19-.06.41-.09.64-.09.17,0,.33.01.49.04.16.03.3.07.42.12v-.22c0-.25-.07-.44-.21-.58-.14-.13-.35-.2-.62-.2-.2,0-.39.04-.58.11-.19.07-.38.18-.58.32l-.29-.61c.48-.32.99-.48,1.55-.48s.95.13,1.25.4c.3.27.44.65.44,1.15v1.17c0,.1.02.17.05.22.04.04.09.07.17.07v.82c-.16.03-.3.05-.42.05-.18,0-.32-.04-.42-.12-.1-.08-.16-.19-.18-.32l-.02-.21c-.17.22-.37.39-.6.5-.24.12-.49.17-.76.17ZM66.89,14.11c.16,0,.31-.03.46-.09.14-.06.26-.13.34-.23.1-.08.16-.17.16-.27v-.43c-.11-.04-.24-.08-.37-.1-.13-.03-.26-.04-.38-.04-.25,0-.45.06-.6.17-.16.11-.23.26-.23.43,0,.16.06.3.18.41.12.11.27.16.45.16Z"/>
    <path class="cls-1" d="M71.9,11.81c-.29,0-.55.06-.77.17-.23.11-.39.27-.49.49v2.28h-.95v-3.77h.87v.81c.07-.13.14-.25.23-.35s.19-.19.29-.27c.1-.08.21-.14.32-.18.11-.04.21-.06.31-.06h.12s.05,0,.07,0v.88Z"/>
    <path class="cls-1" d="M72.51,15.48c.08.02.16.04.23.05.08.01.14.02.19.02.06,0,.12-.01.17-.04.05-.02.1-.07.14-.13.04-.06.09-.14.13-.25.04-.11.09-.24.13-.4l-1.47-3.77h.98l1.01,2.93.9-2.93h.89l-1.56,4.52c-.09.26-.24.48-.46.65-.22.17-.49.25-.81.25-.08,0-.15,0-.23-.02-.08-.01-.16-.03-.25-.06v-.83Z"/>
    <path class="cls-1" d="M77.27,14.82c-.18,0-.35-.03-.5-.09-.16-.06-.29-.14-.4-.25-.11-.11-.2-.23-.27-.38-.06-.14-.1-.3-.1-.47s.04-.34.12-.49.19-.28.33-.39.31-.19.5-.25c.19-.06.41-.09.64-.09.17,0,.33.01.49.04.16.03.3.07.42.12v-.22c0-.25-.07-.44-.21-.58-.14-.13-.35-.2-.62-.2-.2,0-.39.04-.58.11s-.38.18-.58.32l-.29-.61c.48-.32.99-.48,1.55-.48s.95.13,1.25.4c.3.27.44.65.44,1.15v1.17c0,.1.02.17.05.22.04.04.09.07.17.07v.82c-.16.03-.3.05-.42.05-.18,0-.32-.04-.42-.12-.1-.08-.16-.19-.18-.32l-.02-.21c-.17.22-.37.39-.6.5-.24.12-.49.17-.76.17ZM77.54,14.11c.16,0,.31-.03.46-.09.14-.06.26-.13.34-.23.1-.08.16-.17.16-.27v-.43c-.11-.04-.24-.08-.37-.1-.13-.03-.26-.04-.38-.04-.25,0-.45.06-.6.17-.16.11-.23.26-.23.43,0,.16.06.3.18.41.12.11.27.16.45.16Z"/>
    <path class="cls-1" d="M82.12,14.75v-5.11h.98v5.11h-.98Z"/>
    <path class="cls-1" d="M87.52,14.75h-.95v-2.11c0-.3-.05-.52-.16-.66-.1-.14-.25-.21-.43-.21-.09,0-.19.02-.29.06-.1.04-.19.09-.28.16-.09.07-.17.15-.24.25-.07.1-.12.2-.16.32v2.2h-.95v-3.77h.86v.7c.14-.24.34-.43.6-.56.26-.13.55-.2.88-.2.23,0,.42.04.57.13.15.09.26.2.34.34.08.14.14.3.17.47.03.18.05.36.05.54v2.35Z"/>
    <path class="cls-1" d="M90.55,14.55c-.13.06-.28.12-.47.17-.18.06-.38.09-.58.09-.13,0-.26-.02-.37-.05s-.22-.09-.31-.16c-.09-.07-.16-.17-.21-.29s-.08-.26-.08-.43v-2.17h-.49v-.74h.49v-1.22h.95v1.22h.78v.74h-.78v1.84c0,.13.03.23.1.28s.15.08.25.08.2-.02.29-.05c.09-.03.17-.06.23-.09l.19.76Z"/>
    <path class="cls-1" d="M92.68,14.82c-.3,0-.57-.05-.81-.15s-.45-.24-.62-.42-.3-.38-.39-.62c-.09-.23-.14-.48-.14-.74s.05-.52.14-.76c.09-.24.22-.45.39-.63s.38-.32.62-.43c.24-.11.52-.16.82-.16s.57.05.81.16c.24.11.44.25.61.42.17.18.3.38.38.62s.13.48.13.73c0,.06,0,.12,0,.18,0,.06,0,.11-.02.14h-2.88c.01.15.05.28.11.4.06.12.13.21.22.3s.19.14.31.19c.11.04.23.06.35.06.19,0,.37-.05.54-.14.17-.09.28-.22.34-.37l.82.23c-.14.29-.36.52-.66.71s-.66.28-1.08.28ZM93.65,12.55c-.02-.28-.13-.51-.31-.68s-.4-.26-.66-.26c-.13,0-.25.02-.36.07-.11.05-.21.11-.29.19-.09.08-.16.18-.21.3-.05.11-.09.24-.1.38h1.93Z"/>
    <path class="cls-1" d="M95.2,9.5h.95v4.04c0,.14.03.25.1.32s.16.11.28.11c.06,0,.12,0,.19-.03.07-.02.13-.04.2-.07l.13.73c-.13.06-.28.11-.45.14-.17.03-.32.05-.46.05-.3,0-.53-.08-.69-.24-.16-.16-.25-.39-.25-.69v-4.38Z"/>
    <path class="cls-1" d="M99.19,14.82c-.3,0-.57-.05-.81-.15s-.45-.24-.62-.42-.3-.38-.39-.62c-.09-.23-.14-.48-.14-.74s.05-.52.14-.76c.09-.24.22-.45.39-.63s.38-.32.62-.43c.24-.11.52-.16.82-.16s.57.05.81.16c.24.11.44.25.61.42.17.18.3.38.38.62s.13.48.13.73c0,.06,0,.12,0,.18,0,.06,0,.11-.02.14h-2.88c.01.15.05.28.11.4.06.12.13.21.22.3s.19.14.31.19c.11.04.23.06.35.06.19,0,.37-.05.54-.14.17-.09.28-.22.34-.37l.82.23c-.14.29-.36.52-.66.71s-.66.28-1.08.28ZM100.15,12.55c-.02-.28-.13-.51-.31-.68s-.4-.26-.66-.26c-.13,0-.25.02-.36.07-.11.05-.21.11-.29.19-.09.08-.16.18-.21.3-.05.11-.09.24-.1.38h1.93Z"/>
    <path class="cls-1" d="M104.26,14.75l-1.08-1.63-.51.51v1.12h-.95v-5.25h.95v3.19l1.49-1.7h1.02l-1.39,1.6,1.48,2.16h-1.02Z"/>
    <path class="cls-1" d="M107.91,14.55c-.13.06-.28.12-.47.17-.18.06-.38.09-.58.09-.13,0-.26-.02-.37-.05s-.22-.09-.31-.16c-.09-.07-.16-.17-.21-.29s-.08-.26-.08-.43v-2.17h-.49v-.74h.49v-1.22h.95v1.22h.78v.74h-.78v1.84c0,.13.03.23.1.28s.15.08.25.08.2-.02.29-.05c.09-.03.17-.06.23-.09l.19.76Z"/>
    <path class="cls-1" d="M109.54,14.82c-.38,0-.68-.12-.87-.37s-.3-.62-.3-1.11v-2.36h.95v2.15c0,.58.21.87.62.87.18,0,.36-.06.54-.17.17-.11.31-.28.42-.51v-2.34h.95v2.66c0,.1.02.17.05.22.04.04.09.07.17.07v.82c-.09.02-.17.03-.24.04-.06,0-.12,0-.17,0-.17,0-.31-.04-.42-.12s-.17-.19-.19-.33l-.02-.3c-.17.26-.38.45-.64.58-.26.13-.55.19-.86.19Z"/>
    <path class="cls-1" d="M113.81,14.82c-.18,0-.35-.03-.5-.09-.16-.06-.29-.14-.4-.25-.11-.11-.2-.23-.27-.38-.06-.14-.1-.3-.1-.47s.04-.34.12-.49.19-.28.33-.39.31-.19.5-.25c.19-.06.41-.09.64-.09.17,0,.33.01.49.04.16.03.3.07.42.12v-.22c0-.25-.07-.44-.21-.58-.14-.13-.35-.2-.62-.2-.2,0-.39.04-.58.11s-.38.18-.58.32l-.29-.61c.48-.32.99-.48,1.55-.48s.95.13,1.25.4c.3.27.44.65.44,1.15v1.17c0,.1.02.17.05.22.04.04.09.07.17.07v.82c-.16.03-.3.05-.42.05-.18,0-.32-.04-.42-.12-.1-.08-.16-.19-.18-.32l-.02-.21c-.17.22-.37.39-.6.5-.24.12-.49.17-.76.17ZM114.08,14.11c.16,0,.31-.03.46-.09.14-.06.26-.13.34-.23.1-.08.16-.17.16-.27v-.43c-.11-.04-.24-.08-.37-.1-.13-.03-.26-.04-.38-.04-.25,0-.45.06-.6.17-.16.11-.23.26-.23.43,0,.16.06.3.18.41.12.11.27.16.45.16Z"/>
    <path class="cls-1" d="M116.87,9.5h.95v4.04c0,.14.03.25.1.32s.16.11.28.11c.06,0,.12,0,.19-.03.07-.02.13-.04.2-.07l.13.73c-.13.06-.28.11-.45.14-.17.03-.32.05-.46.05-.3,0-.53-.08-.69-.24-.16-.16-.25-.39-.25-.69v-4.38Z"/>
  </g>
  <g>
    <g>
      <path class="cls-4" d="M2.41,12.67c0,1.06.34,2.04.92,2.82l-2.72-2.94,2.82-2.83c-.64.8-1.03,1.83-1.03,2.95Z"/>
      <path class="cls-6" d="M9.71,9.15c-.77-.68-1.77-1.09-2.86-1.09-1.02,0-1.96.36-2.7.96l2.83-2.83,2.74,2.97Z"/>
      <path class="cls-2" d="M9.58,16.31l-2.85,2.86-2.72-2.94c.77.67,1.76,1.07,2.84,1.07s1.98-.37,2.73-.98Z"/>
      <path class="cls-7" d="M10.24,15.65c.65-.8,1.05-1.84,1.05-2.98,0-1.07-.35-2.06-.94-2.84l2.74,2.97-2.85,2.86Z"/>
    </g>
    <ellipse class="cls-6" cx="6.81" cy="12.67" rx="3.64" ry="3.74"/>
    <g>
      <polygon class="cls-3" points="8.87 15.16 8.67 14.96 8.88 14.76 9.08 14.96 8.87 15.16"/>
      <polygon class="cls-5" points="4.85 11.03 5.05 11.23 5.26 11.02 5.06 10.82 4.85 11.03"/>
      <polygon class="cls-5" points="4.63 10.8 4.82 11 5.03 10.79 4.84 10.59 4.63 10.8"/>
      <polygon class="cls-5" points="6.2 12.42 6.39 12.62 6.6 12.41 6.41 12.22 6.2 12.42"/>
      <polygon class="cls-5" points="4.41 10.56 4.6 10.76 4.81 10.56 4.61 10.36 4.41 10.56"/>
      <polygon class="cls-5" points="8.22 14.51 8.41 14.71 8.62 14.5 8.43 14.31 8.22 14.51"/>
      <polygon class="cls-5" points="7.98 13.84 7.77 14.05 7.97 14.25 8.17 14.04 7.98 13.84"/>
      <polygon class="cls-5" points="5.08 11.26 5.27 11.46 5.48 11.25 5.29 11.05 5.08 11.26"/>
      <polygon class="cls-5" points="5.53 11.72 5.72 11.92 5.93 11.72 5.74 11.52 5.53 11.72"/>
      <polygon class="cls-5" points="5.98 12.19 6.17 12.39 6.38 12.18 6.19 11.98 5.98 12.19"/>
      <polygon class="cls-5" points="6.43 12.65 6.62 12.85 6.83 12.65 6.63 12.45 6.43 12.65"/>
      <polygon class="cls-5" points="7.55 13.81 7.74 14.01 7.95 13.81 7.76 13.61 7.55 13.81"/>
      <polygon class="cls-5" points="7.32 13.58 7.52 13.78 7.73 13.58 7.53 13.38 7.32 13.58"/>
      <polygon class="cls-5" points="7.1 13.35 7.29 13.55 7.5 13.34 7.31 13.14 7.1 13.35"/>
      <polygon class="cls-5" points="6.87 13.12 7.07 13.32 7.28 13.11 7.08 12.91 6.87 13.12"/>
      <polygon class="cls-5" points="5.3 11.49 5.5 11.69 5.71 11.49 5.51 11.29 5.3 11.49"/>
      <polygon class="cls-5" points="5.75 11.96 5.95 12.16 6.15 11.95 5.96 11.75 5.75 11.96"/>
      <polygon class="cls-5" points="8.45 14.74 8.64 14.94 8.85 14.73 8.66 14.53 8.45 14.74"/>
      <polygon class="cls-5" points="8.69 14.5 8.88 14.7 9.09 14.5 8.9 14.3 8.69 14.5"/>
      <polygon class="cls-5" points="6.65 12.89 6.84 13.09 7.05 12.88 6.86 12.68 6.65 12.89"/>
      <polygon class="cls-5" points="8.21 14.07 8 14.28 8.19 14.48 8.4 14.27 8.21 14.07"/>
      <polygon class="cls-5" points="5.97 12.65 6.16 12.85 6.37 12.65 6.18 12.45 5.97 12.65"/>
      <polygon class="cls-5" points="7.99 14.74 8.18 14.94 8.39 14.74 8.2 14.54 7.99 14.74"/>
      <polygon class="cls-5" points="7.75 14.07 7.54 14.28 7.73 14.48 7.94 14.27 7.75 14.07"/>
      <polygon class="cls-5" points="5.74 12.42 5.94 12.62 6.15 12.42 5.95 12.22 5.74 12.42"/>
      <polygon class="cls-5" points="6.19 12.89 6.39 13.09 6.59 12.88 6.4 12.68 6.19 12.89"/>
      <polygon class="cls-5" points="7.31 14.05 7.51 14.25 7.72 14.04 7.52 13.84 7.31 14.05"/>
      <polygon class="cls-5" points="7.09 13.82 7.28 14.02 7.49 13.81 7.3 13.61 7.09 13.82"/>
      <polygon class="cls-5" points="6.87 13.58 7.06 13.78 7.27 13.58 7.07 13.38 6.87 13.58"/>
      <polygon class="cls-5" points="6.64 13.35 6.83 13.55 7.04 13.34 6.85 13.15 6.64 13.35"/>
      <polygon class="cls-5" points="7.08 14.27 7.27 14.47 7.48 14.27 7.28 14.07 7.08 14.27"/>
      <polygon class="cls-5" points="6.85 14.04 7.04 14.24 7.25 14.04 7.06 13.84 6.85 14.04"/>
      <polygon class="cls-5" points="6.63 13.81 6.82 14.01 7.03 13.8 6.84 13.6 6.63 13.81"/>
      <polygon class="cls-5" points="6.4 13.58 6.6 13.78 6.8 13.57 6.61 13.37 6.4 13.58"/>
      <polygon class="cls-5" points="6.42 13.12 6.61 13.32 6.82 13.11 6.63 12.91 6.42 13.12"/>
      <polygon class="cls-5" points="7.97 14.31 7.76 14.51 7.96 14.71 8.17 14.51 7.97 14.31"/>
      <polygon class="cls-5" points="5.1 10.79 5.29 10.99 5.5 10.78 5.31 10.58 5.1 10.79"/>
      <polygon class="cls-5" points="6.45 12.18 6.64 12.38 6.85 12.18 6.66 11.98 6.45 12.18"/>
      <polygon class="cls-5" points="8.47 14.27 8.66 14.47 8.87 14.27 8.68 14.07 8.47 14.27"/>
      <polygon class="cls-5" points="8.23 13.6 8.02 13.81 8.21 14.01 8.42 13.8 8.23 13.6"/>
      <polygon class="cls-5" points="5.32 11.02 5.52 11.22 5.73 11.01 5.53 10.81 5.32 11.02"/>
      <polygon class="cls-5" points="5.77 11.49 5.97 11.69 6.18 11.48 5.98 11.28 5.77 11.49"/>
      <polygon class="cls-5" points="6.22 11.95 6.42 12.15 6.62 11.94 6.43 11.74 6.22 11.95"/>
      <polygon class="cls-5" points="6.67 12.41 6.86 12.61 7.07 12.41 6.88 12.21 6.67 12.41"/>
      <polygon class="cls-5" points="7.79 13.58 7.99 13.78 8.2 13.57 8 13.37 7.79 13.58"/>
      <polygon class="cls-5" points="7.57 13.34 7.76 13.54 7.97 13.34 7.78 13.14 7.57 13.34"/>
      <polygon class="cls-5" points="7.34 13.11 7.54 13.31 7.75 13.1 7.55 12.9 7.34 13.11"/>
      <polygon class="cls-5" points="7.12 12.88 7.31 13.08 7.52 12.87 7.33 12.67 7.12 12.88"/>
      <polygon class="cls-5" points="5.55 11.25 5.74 11.45 5.95 11.25 5.76 11.05 5.55 11.25"/>
      <polygon class="cls-5" points="6 11.72 6.19 11.92 6.4 11.71 6.21 11.51 6 11.72"/>
      <polygon class="cls-5" points="6.9 12.65 7.09 12.85 7.3 12.64 7.1 12.44 6.9 12.65"/>
      <polygon class="cls-5" points="8.45 13.83 8.24 14.04 8.44 14.24 8.64 14.03 8.45 13.83"/>
      <polygon class="cls-5" points="6.68 11.95 6.88 12.15 7.08 11.94 6.89 11.74 6.68 11.95"/>
      <polygon class="cls-5" points="8.7 14.04 8.9 14.24 9.1 14.03 8.91 13.83 8.7 14.04"/>
      <polygon class="cls-5" points="8.46 13.37 8.25 13.57 8.45 13.77 8.66 13.57 8.46 13.37"/>
      <polygon class="cls-5" points="6.01 11.25 6.2 11.45 6.41 11.25 6.22 11.05 6.01 11.25"/>
      <polygon class="cls-5" points="6.46 11.72 6.65 11.92 6.86 11.71 6.67 11.51 6.46 11.72"/>
      <polygon class="cls-5" points="6.91 12.18 7.1 12.38 7.31 12.17 7.12 11.98 6.91 12.18"/>
      <polygon class="cls-5" points="8.03 13.34 8.22 13.54 8.43 13.34 8.24 13.14 8.03 13.34"/>
      <polygon class="cls-5" points="7.81 13.11 8 13.31 8.21 13.1 8.01 12.9 7.81 13.11"/>
      <polygon class="cls-5" points="7.58 12.88 7.77 13.08 7.98 12.87 7.79 12.67 7.58 12.88"/>
      <polygon class="cls-5" points="7.36 12.65 7.55 12.85 7.76 12.64 7.57 12.44 7.36 12.65"/>
      <polygon class="cls-5" points="6.23 11.48 6.43 11.68 6.64 11.48 6.44 11.28 6.23 11.48"/>
      <polygon class="cls-5" points="7.13 12.41 7.33 12.61 7.53 12.41 7.34 12.21 7.13 12.41"/>
      <polygon class="cls-5" points="6.92 11.72 7.11 11.92 7.32 11.71 7.13 11.51 6.92 11.72"/>
      <polygon class="cls-5" points="8.7 13.13 8.49 13.34 8.69 13.54 8.89 13.33 8.7 13.13"/>
      <polygon class="cls-5" points="7.15 11.95 7.34 12.15 7.55 11.94 7.36 11.74 7.15 11.95"/>
      <polygon class="cls-5" points="8.27 13.11 8.46 13.31 8.67 13.1 8.48 12.9 8.27 13.11"/>
      <polygon class="cls-5" points="8.04 12.88 8.24 13.08 8.45 12.87 8.25 12.67 8.04 12.88"/>
      <polygon class="cls-5" points="7.82 12.64 8.01 12.84 8.22 12.64 8.03 12.44 7.82 12.64"/>
      <polygon class="cls-5" points="7.6 12.41 7.79 12.61 8 12.41 7.8 12.21 7.6 12.41"/>
      <polygon class="cls-5" points="7.37 12.18 7.56 12.38 7.77 12.17 7.58 11.97 7.37 12.18"/>
      <polygon class="cls-5" points="8.69 13.6 8.48 13.81 8.67 14.01 8.88 13.8 8.69 13.6"/>
    </g>
  </g>
</svg>