<?xml version="1.0" encoding="UTF-8"?>
<svg id="Layer_1" data-name="Layer 1" xmlns="http://www.w3.org/2000/svg" viewBox="0 0 120 24">
  <defs>
    <style>
      .cls-1 {
        fill: #6963ac;
      }

      .cls-2 {
        fill: #fff;
      }

      .cls-3 {
        fill: #eb2127;
      }

      .cls-4 {
        fill: #735ba7;
      }

      .cls-5 {
        fill: #c8b579;
      }

      .cls-6 {
        fill: #3a4767;
      }

      .cls-7 {
        fill: #3867a6;
      }
    </style>
  </defs>
  <g>
    <path class="cls-2" d="M16.63,14.63v-5.11h2.14c.23,0,.45.05.64.15s.37.23.51.39c.14.16.25.34.33.55.08.2.12.41.12.62s-.04.43-.11.63-.18.38-.32.54c-.14.16-.3.29-.5.38-.19.1-.41.14-.64.14h-1.19v1.71h-.98ZM17.61,12.05h1.14c.18,0,.33-.07.45-.22s.18-.35.18-.6c0-.13-.02-.25-.06-.35s-.09-.19-.15-.26-.13-.13-.22-.16c-.08-.04-.17-.05-.25-.05h-1.09v1.65Z"/>
    <path class="cls-2" d="M22.1,14.7c-.38,0-.67-.12-.87-.37-.2-.25-.3-.62-.3-1.11v-2.36h.95v2.15c0,.58.21.87.62.87.18,0,.36-.06.54-.17.17-.11.31-.28.42-.51v-2.34h.95v2.66c0,.1.02.17.05.22.04.04.09.07.17.07v.82c-.09.02-.17.03-.24.04-.06,0-.12,0-.17,0-.17,0-.31-.04-.42-.12-.11-.08-.17-.19-.19-.33l-.02-.3c-.17.26-.38.45-.64.58-.26.13-.55.19-.86.19Z"/>
    <path class="cls-2" d="M26.76,14.7c-.31,0-.62-.05-.92-.15s-.55-.24-.77-.43l.35-.6c.23.16.45.29.66.37.22.08.43.13.64.13.19,0,.34-.04.45-.11.11-.07.16-.18.16-.31s-.06-.23-.19-.3c-.13-.06-.34-.13-.62-.22-.24-.07-.45-.13-.62-.19-.17-.06-.31-.13-.41-.21s-.18-.17-.23-.27c-.05-.1-.07-.23-.07-.37,0-.19.04-.36.11-.52.07-.15.18-.28.31-.39s.29-.19.47-.25c.18-.06.37-.09.58-.09.28,0,.54.04.78.12.24.08.47.21.67.4l-.38.58c-.19-.14-.37-.25-.55-.32s-.35-.1-.53-.1c-.16,0-.3.03-.4.1s-.16.18-.16.32c0,.07.01.12.04.17.03.04.07.08.12.12.06.03.13.07.22.1.09.03.21.06.34.1.26.07.47.13.66.2.18.07.33.14.45.23.12.09.2.19.26.3.05.11.08.25.08.41,0,.37-.13.66-.4.87-.27.21-.64.32-1.1.32Z"/>
    <path class="cls-2" d="M29.9,14.7c-.18,0-.35-.03-.5-.09-.16-.06-.29-.14-.4-.25-.11-.11-.2-.23-.27-.38-.06-.14-.1-.3-.1-.47s.04-.34.12-.49.19-.28.33-.39.31-.19.5-.25c.19-.06.41-.09.64-.09.17,0,.33.01.49.04.16.03.3.07.42.12v-.22c0-.25-.07-.44-.21-.58-.14-.13-.35-.2-.62-.2-.2,0-.39.04-.58.11-.19.07-.38.18-.58.32l-.29-.61c.48-.32.99-.48,1.55-.48s.95.13,1.25.4c.3.27.44.65.44,1.15v1.17c0,.1.02.17.05.22.04.04.09.07.17.07v.82c-.16.03-.3.05-.42.05-.18,0-.32-.04-.42-.12-.1-.08-.16-.19-.18-.32l-.02-.21c-.17.22-.37.39-.6.5-.24.12-.49.17-.76.17ZM30.17,14c.16,0,.31-.03.46-.09.14-.06.26-.13.34-.23.1-.08.16-.17.16-.27v-.43c-.11-.04-.24-.08-.37-.1-.13-.03-.26-.04-.38-.04-.25,0-.45.06-.6.17-.16.11-.23.26-.23.43,0,.16.06.3.18.41.12.11.27.16.45.16Z"/>
    <path class="cls-2" d="M35.16,14.44c-.13.06-.28.12-.47.17-.18.06-.38.09-.58.09-.13,0-.26-.02-.37-.05-.12-.03-.22-.09-.31-.16-.09-.07-.16-.17-.21-.29-.05-.12-.08-.26-.08-.43v-2.17h-.49v-.74h.49v-1.22h.95v1.22h.78v.74h-.78v1.84c0,.13.03.23.1.28.07.06.15.08.25.08s.2-.02.29-.05c.09-.03.17-.06.23-.09l.19.76Z"/>
    <path class="cls-2" d="M37.45,14.63v-5.1h.98v2.42l2.12-2.43h1.08l-1.93,2.27,2.05,2.84h-1.1l-1.57-2.21-.65.68v1.52h-.98Z"/>
    <path class="cls-2" d="M43.65,14.7c-.3,0-.57-.05-.81-.15-.24-.1-.45-.24-.62-.42-.17-.18-.3-.38-.39-.62-.09-.23-.14-.48-.14-.74s.05-.52.13-.76c.09-.24.22-.45.39-.63s.38-.32.62-.43.52-.16.82-.16.57.05.81.16c.24.11.44.25.61.42s.3.38.38.62.13.48.13.73c0,.06,0,.12,0,.18,0,.06,0,.11-.02.14h-2.88c.01.15.05.28.11.4.06.12.13.21.22.3s.19.14.31.19c.11.04.23.06.36.06.19,0,.37-.05.54-.14.17-.09.28-.22.34-.37l.82.23c-.14.29-.36.52-.66.71-.3.18-.66.28-1.08.28ZM44.62,12.43c-.02-.28-.13-.51-.31-.68s-.4-.26-.66-.26c-.13,0-.25.02-.36.07-.11.05-.21.11-.29.19-.09.08-.16.18-.21.3-.05.11-.09.24-.1.38h1.93Z"/>
    <path class="cls-2" d="M46.18,9.38h.95v4.04c0,.14.03.25.1.32.07.08.16.11.28.11.06,0,.12,0,.19-.03.07-.02.13-.04.2-.07l.13.73c-.13.06-.28.11-.45.14-.17.03-.32.05-.46.05-.3,0-.53-.08-.69-.24-.16-.16-.24-.39-.24-.69v-4.38Z"/>
    <path class="cls-2" d="M50.15,14.7c-.3,0-.58-.05-.82-.16-.24-.11-.45-.25-.61-.43-.17-.18-.3-.39-.39-.62-.09-.24-.13-.48-.13-.74s.05-.51.13-.75c.09-.23.22-.44.39-.62.17-.18.37-.32.61-.43.24-.11.51-.16.82-.16s.57.05.81.16c.24.11.44.25.61.43.17.18.3.39.39.62.09.24.13.48.13.75s-.05.51-.13.74c-.09.23-.22.44-.38.62-.17.18-.37.32-.61.43-.24.11-.51.16-.82.16ZM49.18,12.75c0,.17.02.32.07.46.05.14.12.26.21.36s.19.18.31.23c.12.06.25.08.38.08s.27-.03.38-.08c.12-.06.22-.13.31-.23.09-.1.16-.22.21-.36.05-.14.07-.29.07-.46s-.02-.31-.07-.45c-.05-.14-.12-.26-.21-.36-.09-.1-.19-.18-.31-.23-.12-.06-.25-.08-.38-.08s-.27.03-.38.09c-.12.06-.22.14-.31.24s-.16.22-.21.36-.07.29-.07.45Z"/>
    <path class="cls-2" d="M52.73,9.38h.95v4.04c0,.14.03.25.1.32.07.08.16.11.28.11.06,0,.12,0,.19-.03.07-.02.13-.04.2-.07l.13.73c-.13.06-.28.11-.45.14-.17.03-.32.05-.46.05-.3,0-.53-.08-.69-.24-.16-.16-.24-.39-.24-.69v-4.38Z"/>
    <path class="cls-2" d="M56.01,14.7c-.18,0-.35-.03-.5-.09-.16-.06-.29-.14-.4-.25-.11-.11-.2-.23-.27-.38-.06-.14-.1-.3-.1-.47s.04-.34.12-.49.19-.28.33-.39.31-.19.5-.25c.19-.06.41-.09.64-.09.17,0,.33.01.49.04.16.03.3.07.42.12v-.22c0-.25-.07-.44-.21-.58-.14-.13-.35-.2-.62-.2-.2,0-.39.04-.58.11-.19.07-.38.18-.58.32l-.29-.61c.48-.32.99-.48,1.55-.48s.95.13,1.25.4c.3.27.44.65.44,1.15v1.17c0,.1.02.17.05.22.04.04.09.07.17.07v.82c-.16.03-.3.05-.42.05-.18,0-.32-.04-.42-.12-.1-.08-.16-.19-.18-.32l-.02-.21c-.17.22-.37.39-.6.5-.24.12-.49.17-.76.17ZM56.28,14c.16,0,.31-.03.46-.09.14-.06.26-.13.34-.23.1-.08.16-.17.16-.27v-.43c-.11-.04-.24-.08-.37-.1-.13-.03-.26-.04-.38-.04-.25,0-.45.06-.6.17-.16.11-.23.26-.23.43,0,.16.06.3.18.41.12.11.27.16.45.16Z"/>
    <path class="cls-2" d="M60.87,14.63v-5.1h.98v2.42l2.12-2.43h1.08l-1.93,2.27,2.05,2.84h-1.1l-1.57-2.21-.65.68v1.52h-.98Z"/>
    <path class="cls-2" d="M66.54,14.7c-.18,0-.35-.03-.5-.09-.16-.06-.29-.14-.4-.25-.11-.11-.2-.23-.27-.38-.06-.14-.1-.3-.1-.47s.04-.34.12-.49.19-.28.33-.39.31-.19.5-.25c.19-.06.41-.09.64-.09.17,0,.33.01.49.04.16.03.3.07.42.12v-.22c0-.25-.07-.44-.21-.58-.14-.13-.35-.2-.62-.2-.2,0-.39.04-.58.11-.19.07-.38.18-.58.32l-.29-.61c.48-.32.99-.48,1.55-.48s.95.13,1.25.4c.3.27.44.65.44,1.15v1.17c0,.1.02.17.05.22.04.04.09.07.17.07v.82c-.16.03-.3.05-.42.05-.18,0-.32-.04-.42-.12-.1-.08-.16-.19-.18-.32l-.02-.21c-.17.22-.37.39-.6.5-.24.12-.49.17-.76.17ZM66.81,14c.16,0,.31-.03.46-.09.14-.06.26-.13.34-.23.1-.08.16-.17.16-.27v-.43c-.11-.04-.24-.08-.37-.1-.13-.03-.26-.04-.38-.04-.25,0-.45.06-.6.17-.16.11-.23.26-.23.43,0,.16.06.3.18.41.12.11.27.16.45.16Z"/>
    <path class="cls-2" d="M71.82,11.7c-.29,0-.55.06-.77.17-.23.11-.39.27-.49.49v2.28h-.95v-3.77h.87v.81c.07-.13.14-.25.23-.35s.19-.19.29-.27c.1-.08.21-.14.32-.18.11-.04.21-.06.31-.06h.12s.05,0,.07,0v.88Z"/>
    <path class="cls-2" d="M72.43,15.37c.08.02.16.04.23.05.08.01.14.02.19.02.06,0,.12-.01.17-.04.05-.02.1-.07.14-.13.04-.06.09-.14.13-.25.04-.11.09-.24.13-.4l-1.47-3.77h.98l1.01,2.93.9-2.93h.89l-1.56,4.52c-.09.26-.24.48-.46.65-.22.17-.49.25-.81.25-.08,0-.15,0-.23-.02-.08-.01-.16-.03-.25-.06v-.83Z"/>
    <path class="cls-2" d="M77.18,14.7c-.18,0-.35-.03-.5-.09-.16-.06-.29-.14-.4-.25-.11-.11-.2-.23-.27-.38-.06-.14-.1-.3-.1-.47s.04-.34.12-.49.19-.28.33-.39.31-.19.5-.25c.19-.06.41-.09.64-.09.17,0,.33.01.49.04.16.03.3.07.42.12v-.22c0-.25-.07-.44-.21-.58-.14-.13-.35-.2-.62-.2-.2,0-.39.04-.58.11s-.38.18-.58.32l-.29-.61c.48-.32.99-.48,1.55-.48s.95.13,1.25.4c.3.27.44.65.44,1.15v1.17c0,.1.02.17.05.22.04.04.09.07.17.07v.82c-.16.03-.3.05-.42.05-.18,0-.32-.04-.42-.12-.1-.08-.16-.19-.18-.32l-.02-.21c-.17.22-.37.39-.6.5-.24.12-.49.17-.76.17ZM77.45,14c.16,0,.31-.03.46-.09.14-.06.26-.13.34-.23.1-.08.16-.17.16-.27v-.43c-.11-.04-.24-.08-.37-.1-.13-.03-.26-.04-.38-.04-.25,0-.45.06-.6.17-.16.11-.23.26-.23.43,0,.16.06.3.18.41.12.11.27.16.45.16Z"/>
    <path class="cls-2" d="M82.04,14.63v-5.11h.98v5.11h-.98Z"/>
    <path class="cls-2" d="M87.44,14.63h-.95v-2.11c0-.3-.05-.52-.16-.66-.1-.14-.25-.21-.43-.21-.09,0-.19.02-.29.06-.1.04-.19.09-.28.16-.09.07-.17.15-.24.25-.07.1-.12.2-.16.32v2.2h-.95v-3.77h.86v.7c.14-.24.34-.43.6-.56.26-.13.55-.2.88-.2.23,0,.42.04.57.13.15.09.26.2.34.34.08.14.14.3.17.47.03.18.05.36.05.54v2.35Z"/>
    <path class="cls-2" d="M90.46,14.44c-.13.06-.28.12-.47.17-.18.06-.38.09-.58.09-.13,0-.26-.02-.37-.05s-.22-.09-.31-.16c-.09-.07-.16-.17-.21-.29s-.08-.26-.08-.43v-2.17h-.49v-.74h.49v-1.22h.95v1.22h.78v.74h-.78v1.84c0,.13.03.23.1.28s.15.08.25.08.2-.02.29-.05c.09-.03.17-.06.23-.09l.19.76Z"/>
    <path class="cls-2" d="M92.59,14.7c-.3,0-.57-.05-.81-.15s-.45-.24-.62-.42-.3-.38-.39-.62c-.09-.23-.14-.48-.14-.74s.05-.52.14-.76c.09-.24.22-.45.39-.63s.38-.32.62-.43c.24-.11.52-.16.82-.16s.57.05.81.16c.24.11.44.25.61.42.17.18.3.38.38.62s.13.48.13.73c0,.06,0,.12,0,.18,0,.06,0,.11-.02.14h-2.88c.01.15.05.28.11.4.06.12.13.21.22.3s.19.14.31.19c.11.04.23.06.35.06.19,0,.37-.05.54-.14.17-.09.28-.22.34-.37l.82.23c-.14.29-.36.52-.66.71s-.66.28-1.08.28ZM93.56,12.43c-.02-.28-.13-.51-.31-.68s-.4-.26-.66-.26c-.13,0-.25.02-.36.07-.11.05-.21.11-.29.19-.09.08-.16.18-.21.3-.05.11-.09.24-.1.38h1.93Z"/>
    <path class="cls-2" d="M95.12,9.38h.95v4.04c0,.14.03.25.1.32s.16.11.28.11c.06,0,.12,0,.19-.03.07-.02.13-.04.2-.07l.13.73c-.13.06-.28.11-.45.14-.17.03-.32.05-.46.05-.3,0-.53-.08-.69-.24-.16-.16-.25-.39-.25-.69v-4.38Z"/>
    <path class="cls-2" d="M99.1,14.7c-.3,0-.57-.05-.81-.15s-.45-.24-.62-.42-.3-.38-.39-.62c-.09-.23-.14-.48-.14-.74s.05-.52.14-.76c.09-.24.22-.45.39-.63s.38-.32.62-.43c.24-.11.52-.16.82-.16s.57.05.81.16c.24.11.44.25.61.42.17.18.3.38.38.62s.13.48.13.73c0,.06,0,.12,0,.18,0,.06,0,.11-.02.14h-2.88c.01.15.05.28.11.4.06.12.13.21.22.3s.19.14.31.19c.11.04.23.06.35.06.19,0,.37-.05.54-.14.17-.09.28-.22.34-.37l.82.23c-.14.29-.36.52-.66.71s-.66.28-1.08.28ZM100.07,12.43c-.02-.28-.13-.51-.31-.68s-.4-.26-.66-.26c-.13,0-.25.02-.36.07-.11.05-.21.11-.29.19-.09.08-.16.18-.21.3-.05.11-.09.24-.1.38h1.93Z"/>
    <path class="cls-2" d="M104.17,14.63l-1.08-1.63-.51.51v1.12h-.95v-5.25h.95v3.19l1.49-1.7h1.02l-1.39,1.6,1.48,2.16h-1.02Z"/>
    <path class="cls-2" d="M107.82,14.44c-.13.06-.28.12-.47.17-.18.06-.38.09-.58.09-.13,0-.26-.02-.37-.05s-.22-.09-.31-.16c-.09-.07-.16-.17-.21-.29s-.08-.26-.08-.43v-2.17h-.49v-.74h.49v-1.22h.95v1.22h.78v.74h-.78v1.84c0,.13.03.23.1.28s.15.08.25.08.2-.02.29-.05c.09-.03.17-.06.23-.09l.19.76Z"/>
    <path class="cls-2" d="M109.46,14.7c-.38,0-.68-.12-.87-.37s-.3-.62-.3-1.11v-2.36h.95v2.15c0,.58.21.87.62.87.18,0,.36-.06.54-.17.17-.11.31-.28.42-.51v-2.34h.95v2.66c0,.1.02.17.05.22.04.04.09.07.17.07v.82c-.09.02-.17.03-.24.04-.06,0-.12,0-.17,0-.17,0-.31-.04-.42-.12s-.17-.19-.19-.33l-.02-.3c-.17.26-.38.45-.64.58-.26.13-.55.19-.86.19Z"/>
    <path class="cls-2" d="M113.73,14.7c-.18,0-.35-.03-.5-.09-.16-.06-.29-.14-.4-.25-.11-.11-.2-.23-.27-.38-.06-.14-.1-.3-.1-.47s.04-.34.12-.49.19-.28.33-.39.31-.19.5-.25c.19-.06.41-.09.64-.09.17,0,.33.01.49.04.16.03.3.07.42.12v-.22c0-.25-.07-.44-.21-.58-.14-.13-.35-.2-.62-.2-.2,0-.39.04-.58.11s-.38.18-.58.32l-.29-.61c.48-.32.99-.48,1.55-.48s.95.13,1.25.4c.3.27.44.65.44,1.15v1.17c0,.1.02.17.05.22.04.04.09.07.17.07v.82c-.16.03-.3.05-.42.05-.18,0-.32-.04-.42-.12-.1-.08-.16-.19-.18-.32l-.02-.21c-.17.22-.37.39-.6.5-.24.12-.49.17-.76.17ZM114,14c.16,0,.31-.03.46-.09.14-.06.26-.13.34-.23.1-.08.16-.17.16-.27v-.43c-.11-.04-.24-.08-.37-.1-.13-.03-.26-.04-.38-.04-.25,0-.45.06-.6.17-.16.11-.23.26-.23.43,0,.16.06.3.18.41.12.11.27.16.45.16Z"/>
    <path class="cls-2" d="M116.78,9.38h.95v4.04c0,.14.03.25.1.32s.16.11.28.11c.06,0,.12,0,.19-.03.07-.02.13-.04.2-.07l.13.73c-.13.06-.28.11-.45.14-.17.03-.32.05-.46.05-.3,0-.53-.08-.69-.24-.16-.16-.25-.39-.25-.69v-4.38Z"/>
  </g>
  <g>
    <g>
      <path class="cls-4" d="M2.74,12c0,1.06.34,2.04.92,2.82l-2.72-2.94,2.82-2.83c-.64.8-1.03,1.83-1.03,2.95Z"/>
      <path class="cls-6" d="M10.04,8.47c-.77-.68-1.77-1.09-2.86-1.09-1.02,0-1.96.36-2.7.96l2.83-2.83,2.74,2.97Z"/>
      <path class="cls-1" d="M9.91,15.64l-2.85,2.86-2.72-2.94c.77.67,1.76,1.07,2.84,1.07s1.98-.37,2.73-.98Z"/>
      <path class="cls-7" d="M10.57,14.98c.65-.8,1.05-1.84,1.05-2.98,0-1.07-.35-2.06-.94-2.84l2.74,2.97-2.85,2.86Z"/>
    </g>
    <ellipse class="cls-6" cx="7.14" cy="11.99" rx="3.64" ry="3.74"/>
    <g>
      <polygon class="cls-3" points="9.2 14.49 9 14.29 9.21 14.08 9.41 14.28 9.2 14.49"/>
      <polygon class="cls-5" points="5.18 10.35 5.38 10.55 5.59 10.35 5.39 10.15 5.18 10.35"/>
      <polygon class="cls-5" points="4.96 10.12 5.15 10.32 5.36 10.12 5.17 9.92 4.96 10.12"/>
      <polygon class="cls-5" points="6.53 11.75 6.72 11.95 6.93 11.74 6.74 11.54 6.53 11.75"/>
      <polygon class="cls-5" points="4.73 9.89 4.93 10.09 5.14 9.88 4.94 9.68 4.73 9.89"/>
      <polygon class="cls-5" points="8.55 13.84 8.74 14.04 8.95 13.83 8.76 13.63 8.55 13.84"/>
      <polygon class="cls-5" points="8.31 13.17 8.1 13.37 8.29 13.57 8.5 13.37 8.31 13.17"/>
      <polygon class="cls-5" points="5.41 10.59 5.6 10.79 5.81 10.58 5.62 10.38 5.41 10.59"/>
      <polygon class="cls-5" points="5.86 11.05 6.05 11.25 6.26 11.04 6.07 10.84 5.86 11.05"/>
      <polygon class="cls-5" points="6.31 11.52 6.5 11.72 6.71 11.51 6.51 11.31 6.31 11.52"/>
      <polygon class="cls-5" points="6.76 11.98 6.95 12.18 7.16 11.97 6.96 11.77 6.76 11.98"/>
      <polygon class="cls-5" points="7.88 13.14 8.07 13.34 8.28 13.13 8.09 12.93 7.88 13.14"/>
      <polygon class="cls-5" points="7.65 12.91 7.85 13.11 8.05 12.9 7.86 12.7 7.65 12.91"/>
      <polygon class="cls-5" points="7.43 12.68 7.62 12.88 7.83 12.67 7.64 12.47 7.43 12.68"/>
      <polygon class="cls-5" points="7.2 12.44 7.4 12.64 7.61 12.44 7.41 12.24 7.2 12.44"/>
      <polygon class="cls-5" points="5.63 10.82 5.83 11.02 6.03 10.81 5.84 10.61 5.63 10.82"/>
      <polygon class="cls-5" points="6.08 11.28 6.27 11.48 6.48 11.28 6.29 11.08 6.08 11.28"/>
      <polygon class="cls-5" points="8.78 14.07 8.97 14.27 9.18 14.06 8.99 13.86 8.78 14.07"/>
      <polygon class="cls-5" points="9.02 13.83 9.21 14.03 9.42 13.82 9.23 13.62 9.02 13.83"/>
      <polygon class="cls-5" points="6.98 12.21 7.17 12.41 7.38 12.21 7.19 12.01 6.98 12.21"/>
      <polygon class="cls-5" points="8.53 13.4 8.33 13.61 8.52 13.81 8.73 13.6 8.53 13.4"/>
      <polygon class="cls-5" points="6.3 11.98 6.49 12.18 6.7 11.97 6.51 11.77 6.3 11.98"/>
      <polygon class="cls-5" points="8.32 14.07 8.51 14.27 8.72 14.06 8.53 13.86 8.32 14.07"/>
      <polygon class="cls-5" points="8.08 13.4 7.87 13.61 8.06 13.81 8.27 13.6 8.08 13.4"/>
      <polygon class="cls-5" points="6.07 11.75 6.27 11.95 6.47 11.74 6.28 11.54 6.07 11.75"/>
      <polygon class="cls-5" points="6.52 12.21 6.71 12.41 6.92 12.21 6.73 12.01 6.52 12.21"/>
      <polygon class="cls-5" points="7.64 13.37 7.84 13.57 8.05 13.37 7.85 13.17 7.64 13.37"/>
      <polygon class="cls-5" points="7.42 13.14 7.61 13.34 7.82 13.14 7.63 12.94 7.42 13.14"/>
      <polygon class="cls-5" points="7.2 12.91 7.39 13.11 7.6 12.9 7.4 12.7 7.2 12.91"/>
      <polygon class="cls-5" points="6.97 12.68 7.16 12.88 7.37 12.67 7.18 12.47 6.97 12.68"/>
      <polygon class="cls-5" points="7.41 13.6 7.6 13.8 7.81 13.59 7.61 13.39 7.41 13.6"/>
      <polygon class="cls-5" points="7.18 13.37 7.37 13.57 7.58 13.36 7.39 13.16 7.18 13.37"/>
      <polygon class="cls-5" points="6.96 13.14 7.15 13.34 7.36 13.13 7.17 12.93 6.96 13.14"/>
      <polygon class="cls-5" points="6.73 12.9 6.92 13.1 7.13 12.9 6.94 12.7 6.73 12.9"/>
      <polygon class="cls-5" points="6.75 12.45 6.94 12.65 7.15 12.44 6.95 12.24 6.75 12.45"/>
      <polygon class="cls-5" points="8.3 13.63 8.09 13.84 8.29 14.04 8.49 13.83 8.3 13.63"/>
      <polygon class="cls-5" points="5.43 10.12 5.62 10.31 5.83 10.11 5.64 9.91 5.43 10.12"/>
      <polygon class="cls-5" points="6.78 11.51 6.97 11.71 7.18 11.5 6.98 11.3 6.78 11.51"/>
      <polygon class="cls-5" points="8.8 13.6 8.99 13.8 9.2 13.59 9 13.39 8.8 13.6"/>
      <polygon class="cls-5" points="8.56 12.93 8.35 13.13 8.54 13.33 8.75 13.13 8.56 12.93"/>
      <polygon class="cls-5" points="5.65 10.35 5.85 10.55 6.06 10.34 5.86 10.14 5.65 10.35"/>
      <polygon class="cls-5" points="6.1 10.81 6.3 11.01 6.5 10.81 6.31 10.61 6.1 10.81"/>
      <polygon class="cls-5" points="6.55 11.28 6.74 11.48 6.95 11.27 6.76 11.07 6.55 11.28"/>
      <polygon class="cls-5" points="7 11.74 7.19 11.94 7.4 11.73 7.21 11.53 7 11.74"/>
      <polygon class="cls-5" points="8.12 12.9 8.32 13.1 8.52 12.9 8.33 12.7 8.12 12.9"/>
      <polygon class="cls-5" points="7.9 12.67 8.09 12.87 8.3 12.66 8.11 12.46 7.9 12.67"/>
      <polygon class="cls-5" points="7.67 12.44 7.87 12.64 8.08 12.43 7.88 12.23 7.67 12.44"/>
      <polygon class="cls-5" points="7.45 12.21 7.64 12.4 7.85 12.2 7.66 12 7.45 12.21"/>
      <polygon class="cls-5" points="5.88 10.58 6.07 10.78 6.28 10.57 6.09 10.37 5.88 10.58"/>
      <polygon class="cls-5" points="6.33 11.04 6.52 11.24 6.73 11.04 6.54 10.84 6.33 11.04"/>
      <polygon class="cls-5" points="7.22 11.97 7.42 12.17 7.63 11.97 7.43 11.77 7.22 11.97"/>
      <polygon class="cls-5" points="8.78 13.16 8.57 13.37 8.76 13.57 8.97 13.36 8.78 13.16"/>
      <polygon class="cls-5" points="7.01 11.28 7.21 11.48 7.41 11.27 7.22 11.07 7.01 11.28"/>
      <polygon class="cls-5" points="9.03 13.37 9.23 13.57 9.43 13.36 9.24 13.16 9.03 13.37"/>
      <polygon class="cls-5" points="8.79 12.69 8.58 12.9 8.78 13.1 8.99 12.89 8.79 12.69"/>
      <polygon class="cls-5" points="6.34 10.58 6.53 10.78 6.74 10.57 6.55 10.37 6.34 10.58"/>
      <polygon class="cls-5" points="6.79 11.04 6.98 11.24 7.19 11.04 7 10.84 6.79 11.04"/>
      <polygon class="cls-5" points="7.24 11.51 7.43 11.71 7.64 11.5 7.45 11.3 7.24 11.51"/>
      <polygon class="cls-5" points="8.36 12.67 8.55 12.87 8.76 12.66 8.57 12.46 8.36 12.67"/>
      <polygon class="cls-5" points="8.13 12.44 8.33 12.64 8.54 12.43 8.34 12.23 8.13 12.44"/>
      <polygon class="cls-5" points="7.91 12.2 8.1 12.4 8.31 12.2 8.12 12 7.91 12.2"/>
      <polygon class="cls-5" points="7.69 11.97 7.88 12.17 8.09 11.97 7.89 11.77 7.69 11.97"/>
      <polygon class="cls-5" points="6.56 10.81 6.76 11.01 6.97 10.8 6.77 10.6 6.56 10.81"/>
      <polygon class="cls-5" points="7.46 11.74 7.65 11.94 7.86 11.73 7.67 11.53 7.46 11.74"/>
      <polygon class="cls-5" points="7.25 11.04 7.44 11.24 7.65 11.04 7.46 10.84 7.25 11.04"/>
      <polygon class="cls-5" points="9.03 12.46 8.82 12.67 9.02 12.87 9.22 12.66 9.03 12.46"/>
      <polygon class="cls-5" points="7.48 11.27 7.67 11.47 7.88 11.27 7.68 11.07 7.48 11.27"/>
      <polygon class="cls-5" points="8.6 12.43 8.79 12.63 9 12.43 8.81 12.23 8.6 12.43"/>
      <polygon class="cls-5" points="8.37 12.2 8.57 12.4 8.77 12.2 8.58 12 8.37 12.2"/>
      <polygon class="cls-5" points="8.15 11.97 8.34 12.17 8.55 11.96 8.36 11.76 8.15 11.97"/>
      <polygon class="cls-5" points="7.92 11.74 8.12 11.94 8.33 11.73 8.13 11.53 7.92 11.74"/>
      <polygon class="cls-5" points="7.7 11.51 7.89 11.71 8.1 11.5 7.91 11.3 7.7 11.51"/>
      <polygon class="cls-5" points="9.02 12.93 8.81 13.13 9 13.33 9.21 13.13 9.02 12.93"/>
    </g>
  </g>
</svg>