<?xml version="1.0" encoding="UTF-8"?>
<svg id="Layer_1" data-name="Layer 1" xmlns="http://www.w3.org/2000/svg" viewBox="0 0 512 512">
  <defs>
    <style>
      .cls-1 {
        fill: #6963ac;
      }

      .cls-2 {
        fill: #eb2127;
      }

      .cls-3 {
        fill: #735ba7;
      }

      .cls-4 {
        fill: #c8b579;
      }

      .cls-5 {
        fill: #3a4767;
      }

      .cls-6 {
        fill: #3867a6;
      }
    </style>
  </defs>
  <g>
    <path class="cls-3" d="M77.91,256.19c0,41.3,13.75,79.35,36.86,109.72L5.83,251.4l113.18-110.3c-25.67,31.2-41.11,71.32-41.11,115.09Z"/>
    <path class="cls-5" d="M370.48,118.71c-30.97-26.5-71.01-42.48-114.75-42.48-40.81,0-78.41,13.91-108.42,37.31L260.57,3.17l109.91,115.54Z"/>
    <path class="cls-1" d="M365.26,397.97l-114.16,111.25-109.1-114.68c30.83,25.98,70.47,41.62,113.72,41.62s79.34-14.26,109.54-38.19Z"/>
    <path class="cls-6" d="M391.57,372.33c26.18-31.34,41.98-71.87,41.98-116.14,0-41.81-14.09-80.29-37.73-110.85l110.01,115.64-114.26,111.34Z"/>
  </g>
  <circle class="cls-5" cx="254.17" cy="255.89" r="145.73"/>
  <g>
    <polygon class="cls-2" points="336.57 353.18 328.84 345.4 337.2 337.36 344.93 345.14 336.57 353.18"/>
    <polygon class="cls-4" points="175.71 192.08 183.45 199.86 191.81 191.82 184.07 184.05 175.71 192.08"/>
    <polygon class="cls-4" points="166.72 183.03 174.45 190.81 182.81 182.78 175.08 175 166.72 183.03"/>
    <polygon class="cls-4" points="229.69 246.37 237.43 254.15 245.79 246.11 238.06 238.33 229.69 246.37"/>
    <polygon class="cls-4" points="157.72 173.99 165.45 181.77 173.82 173.73 166.08 165.95 157.72 173.99"/>
    <polygon class="cls-4" points="310.67 327.8 318.4 335.58 326.77 327.54 319.03 319.76 310.67 327.8"/>
    <polygon class="cls-4" points="301.04 301.67 292.67 309.7 300.41 317.48 308.77 309.45 301.04 301.67"/>
    <polygon class="cls-4" points="184.71 201.13 192.45 208.91 200.81 200.87 193.07 193.09 184.71 201.13"/>
    <polygon class="cls-4" points="202.7 219.23 210.44 227.01 218.8 218.97 211.07 211.19 202.7 219.23"/>
    <polygon class="cls-4" points="220.7 237.32 228.43 245.1 236.8 237.06 229.06 229.28 220.7 237.32"/>
    <polygon class="cls-4" points="238.69 255.42 246.43 263.2 254.79 255.16 247.05 247.38 238.69 255.42"/>
    <polygon class="cls-4" points="283.68 300.66 291.41 308.44 299.78 300.4 292.04 292.62 283.68 300.66"/>
    <polygon class="cls-4" points="274.68 291.61 282.42 299.39 290.78 291.35 283.04 283.57 274.68 291.61"/>
    <polygon class="cls-4" points="265.68 282.56 273.42 290.34 281.78 282.3 274.05 274.52 265.68 282.56"/>
    <polygon class="cls-4" points="256.69 273.51 264.42 281.29 272.78 273.26 265.05 265.48 256.69 273.51"/>
    <polygon class="cls-4" points="193.71 210.18 201.44 217.96 209.8 209.92 202.07 202.14 193.71 210.18"/>
    <polygon class="cls-4" points="211.7 228.27 219.44 236.05 227.8 228.02 220.06 220.24 211.7 228.27"/>
    <polygon class="cls-4" points="319.84 336.68 327.57 344.46 335.93 336.43 328.2 328.65 319.84 336.68"/>
    <polygon class="cls-4" points="329.39 327.5 337.12 335.28 345.49 327.24 337.75 319.46 329.39 327.5"/>
    <polygon class="cls-4" points="247.69 264.47 255.42 272.24 263.79 264.21 256.05 256.43 247.69 264.47"/>
    <polygon class="cls-4" points="310.03 310.71 301.67 318.75 309.41 326.53 317.77 318.49 310.03 310.71"/>
    <polygon class="cls-4" points="220.34 255.46 228.08 263.24 236.44 255.2 228.7 247.42 220.34 255.46"/>
    <polygon class="cls-4" points="301.32 336.89 309.05 344.67 317.41 336.63 309.68 328.85 301.32 336.89"/>
    <polygon class="cls-4" points="291.68 310.75 283.32 318.79 291.06 326.57 299.42 318.53 291.68 310.75"/>
    <polygon class="cls-4" points="211.34 246.41 219.08 254.19 227.44 246.15 219.71 238.37 211.34 246.41"/>
    <polygon class="cls-4" points="229.34 264.5 237.07 272.28 245.44 264.25 237.7 256.47 229.34 264.5"/>
    <polygon class="cls-4" points="274.32 309.74 282.06 317.52 290.42 309.48 282.69 301.71 274.32 309.74"/>
    <polygon class="cls-4" points="265.33 300.69 273.06 308.47 281.43 300.44 273.69 292.66 265.33 300.69"/>
    <polygon class="cls-4" points="256.33 291.65 264.07 299.43 272.43 291.39 264.69 283.61 256.33 291.65"/>
    <polygon class="cls-4" points="247.33 282.6 255.07 290.38 263.43 282.34 255.7 274.56 247.33 282.6"/>
    <polygon class="cls-4" points="264.76 318.57 272.49 326.35 280.86 318.31 273.12 310.53 264.76 318.57"/>
    <polygon class="cls-4" points="255.76 309.52 263.5 317.3 271.86 309.26 264.12 301.48 255.76 309.52"/>
    <polygon class="cls-4" points="246.76 300.47 254.5 308.25 262.86 300.21 255.13 292.44 246.76 300.47"/>
    <polygon class="cls-4" points="237.77 291.43 245.5 299.2 253.86 291.17 246.13 283.39 237.77 291.43"/>
    <polygon class="cls-4" points="238.34 273.55 246.07 281.33 254.43 273.29 246.7 265.51 238.34 273.55"/>
    <polygon class="cls-4" points="300.68 319.8 292.32 327.84 300.05 335.62 308.42 327.58 300.68 319.8"/>
    <polygon class="cls-4" points="185.55 182.76 193.29 190.53 201.65 182.5 193.91 174.72 185.55 182.76"/>
    <polygon class="cls-4" points="239.53 237.04 247.27 244.82 255.63 236.78 247.89 229 239.53 237.04"/>
    <polygon class="cls-4" points="320.51 318.47 328.24 326.25 336.6 318.21 328.87 310.44 320.51 318.47"/>
    <polygon class="cls-4" points="310.87 292.34 302.51 300.38 310.25 308.16 318.61 300.12 310.87 292.34"/>
    <polygon class="cls-4" points="194.55 191.8 202.28 199.58 210.64 191.55 202.91 183.77 194.55 191.8"/>
    <polygon class="cls-4" points="212.54 209.9 220.28 217.68 228.64 209.64 220.9 201.86 212.54 209.9"/>
    <polygon class="cls-4" points="230.53 227.99 238.27 235.77 246.63 227.74 238.9 219.96 230.53 227.99"/>
    <polygon class="cls-4" points="248.53 246.09 256.26 253.87 264.63 245.83 256.89 238.05 248.53 246.09"/>
    <polygon class="cls-4" points="293.51 291.33 301.25 299.11 309.61 291.07 301.88 283.29 293.51 291.33"/>
    <polygon class="cls-4" points="284.52 282.28 292.25 290.06 300.61 282.02 292.88 274.24 284.52 282.28"/>
    <polygon class="cls-4" points="275.52 273.23 283.26 281.01 291.62 272.98 283.88 265.2 275.52 273.23"/>
    <polygon class="cls-4" points="266.52 264.19 274.26 271.97 282.62 263.93 274.88 256.15 266.52 264.19"/>
    <polygon class="cls-4" points="203.54 200.85 211.28 208.63 219.64 200.59 211.91 192.81 203.54 200.85"/>
    <polygon class="cls-4" points="221.54 218.95 229.27 226.73 237.64 218.69 229.9 210.91 221.54 218.95"/>
    <polygon class="cls-4" points="257.53 255.14 265.26 262.92 273.62 254.88 265.89 247.1 257.53 255.14"/>
    <polygon class="cls-4" points="319.87 301.39 311.51 309.43 319.24 317.2 327.61 309.17 319.87 301.39"/>
    <polygon class="cls-4" points="249.01 227.96 256.74 235.74 265.1 227.7 257.37 219.93 249.01 227.96"/>
    <polygon class="cls-4" points="329.98 309.39 337.72 317.17 346.08 309.14 338.34 301.36 329.98 309.39"/>
    <polygon class="cls-4" points="320.35 283.26 311.99 291.3 319.72 299.08 328.08 291.04 320.35 283.26"/>
    <polygon class="cls-4" points="222.01 200.82 229.75 208.6 238.11 200.56 230.38 192.78 222.01 200.82"/>
    <polygon class="cls-4" points="240.01 218.91 247.74 226.69 256.11 218.66 248.37 210.88 240.01 218.91"/>
    <polygon class="cls-4" points="258 237.01 265.74 244.79 274.1 236.75 266.36 228.97 258 237.01"/>
    <polygon class="cls-4" points="302.99 282.25 310.72 290.03 319.09 281.99 311.35 274.21 302.99 282.25"/>
    <polygon class="cls-4" points="293.99 273.2 301.73 280.98 310.09 272.94 302.35 265.16 293.99 273.2"/>
    <polygon class="cls-4" points="284.99 264.15 292.73 271.93 301.09 263.9 293.36 256.12 284.99 264.15"/>
    <polygon class="cls-4" points="276 255.11 283.73 262.89 292.09 254.85 284.36 247.07 276 255.11"/>
    <polygon class="cls-4" points="231.01 209.87 238.75 217.65 247.11 209.61 239.37 201.83 231.01 209.87"/>
    <polygon class="cls-4" points="267 246.06 274.74 253.84 283.1 245.8 275.36 238.02 267 246.06"/>
    <polygon class="cls-4" points="258.57 218.85 266.31 226.63 274.67 218.59 266.94 210.81 258.57 218.85"/>
    <polygon class="cls-4" points="329.92 274.15 321.55 282.19 329.29 289.97 337.65 281.93 329.92 274.15"/>
    <polygon class="cls-4" points="267.57 227.9 275.31 235.68 283.67 227.64 275.93 219.86 267.57 227.9"/>
    <polygon class="cls-4" points="312.56 273.14 320.29 280.92 328.66 272.88 320.92 265.1 312.56 273.14"/>
    <polygon class="cls-4" points="303.56 264.09 311.3 271.87 319.66 263.83 311.92 256.05 303.56 264.09"/>
    <polygon class="cls-4" points="294.56 255.04 302.3 262.82 310.66 254.79 302.93 247.01 294.56 255.04"/>
    <polygon class="cls-4" points="285.57 246 293.3 253.77 301.66 245.74 293.93 237.96 285.57 246"/>
    <polygon class="cls-4" points="276.57 236.95 284.31 244.73 292.67 236.69 284.93 228.91 276.57 236.95"/>
    <polygon class="cls-4" points="329.34 292.31 320.98 300.35 328.72 308.12 337.08 300.09 329.34 292.31"/>
  </g>
</svg>